<svg aria-hidden="true" style="position: absolute; width: 0; height: 0; overflow: hidden;" version="1.1" xmlns="http://www.w3.org/2000/svg" xmlns:xlink="http://www.w3.org/1999/xlink">
<defs>
<symbol id="icon-facebook" viewBox="0 0 32 32">
<path fill="#e4e4e4" style="fill: var(--color1, #e4e4e4)" d="M0 0h32v32h-32v-32z"></path>
<path fill="#faf4ea" style="fill: var(--color2, #faf4ea)" d="M-751-3826h1440v3881h-1440v-3881z"></path>
<path fill="#31261a" style="fill: var(--color3, #31261a)" d="M-751-176h1440v240h-1440v-240z"></path>
<path fill="#000" style="fill: var(--color4, #000)" opacity="0.3" d="M-751-266h1461v547h-1461v-547z"></path>
<path fill="#faf4ea" style="fill: var(--color2, #faf4ea)" d="M0 16c0-8.837 7.163-16 16-16s16 7.163 16 16c0 8.837-7.163 16-16 16s-16-7.163-16-16zM17.668 25.408v-8.705h2.403l0.319-3h-2.721l0.004-1.501c0-0.782 0.074-1.202 1.198-1.202h1.502v-3h-2.403c-2.887 0-3.903 1.455-3.903 3.902v1.801h-1.799v3h1.799v8.705h3.602z"></path>
</symbol>
<symbol id="icon-instagram" viewBox="0 0 32 32">
<path fill="#e4e4e4" style="fill: var(--color1, #e4e4e4)" d="M0 0h32v32h-32v-32z"></path>
<path fill="#faf4ea" style="fill: var(--color2, #faf4ea)" d="M-805-3826h1440v3881h-1440v-3881z"></path>
<path fill="#31261a" style="fill: var(--color3, #31261a)" d="M-805-176h1440v240h-1440v-240z"></path>
<path fill="#000" style="fill: var(--color4, #000)" opacity="0.3" d="M-805-266h1461v547h-1461v-547z"></path>
<path fill="#faf4ea" style="fill: var(--color2, #faf4ea)" d="M0 16c0-8.837 7.163-16 16-16s16 7.163 16 16c0 8.837-7.163 16-16 16s-16-7.163-16-16zM16.001 7.467c-2.317 0-2.608 0.010-3.519 0.052-0.909 0.042-1.528 0.185-2.071 0.396-0.561 0.218-1.037 0.51-1.512 0.984s-0.766 0.95-0.985 1.511c-0.212 0.543-0.356 1.163-0.396 2.071-0.041 0.91-0.051 1.201-0.051 3.519s0.010 2.607 0.052 3.518c0.042 0.909 0.186 1.529 0.396 2.071 0.218 0.561 0.51 1.037 0.984 1.512s0.95 0.767 1.511 0.985c0.543 0.211 1.163 0.355 2.072 0.396 0.91 0.041 1.201 0.052 3.518 0.052s2.608-0.010 3.518-0.052c0.908-0.042 1.529-0.185 2.072-0.396 0.561-0.218 1.036-0.51 1.511-0.985s0.766-0.95 0.985-1.512c0.21-0.543 0.354-1.163 0.396-2.071 0.041-0.91 0.052-1.2 0.052-3.518s-0.011-2.608-0.052-3.519c-0.043-0.909-0.187-1.529-0.396-2.071-0.219-0.561-0.51-1.037-0.985-1.512s-0.949-0.766-1.511-0.984c-0.544-0.211-1.164-0.355-2.073-0.396-0.91-0.041-1.2-0.052-3.518-0.052h0.003z"></path>
<path fill="#faf4ea" style="fill: var(--color2, #faf4ea)" d="M15.235 9.005c0.227 0 0.481 0 0.766 0 2.278 0 2.548 0.008 3.448 0.049 0.832 0.038 1.284 0.177 1.584 0.294 0.398 0.155 0.682 0.34 0.981 0.638s0.484 0.583 0.639 0.981c0.117 0.3 0.256 0.752 0.294 1.584 0.041 0.899 0.050 1.17 0.050 3.447s-0.009 2.548-0.050 3.447c-0.038 0.832-0.177 1.284-0.294 1.584-0.155 0.398-0.34 0.682-0.639 0.98s-0.582 0.483-0.981 0.638c-0.3 0.117-0.752 0.256-1.584 0.294-0.9 0.041-1.17 0.050-3.448 0.050s-2.549-0.009-3.448-0.050c-0.832-0.038-1.284-0.177-1.585-0.294-0.398-0.155-0.683-0.34-0.981-0.638s-0.484-0.582-0.639-0.981c-0.117-0.3-0.256-0.752-0.294-1.584-0.041-0.9-0.049-1.17-0.049-3.449s0.008-2.548 0.049-3.447c0.038-0.832 0.177-1.284 0.294-1.584 0.155-0.398 0.34-0.683 0.639-0.981s0.583-0.484 0.981-0.639c0.301-0.117 0.753-0.256 1.585-0.294 0.787-0.036 1.092-0.046 2.683-0.048v0.002zM20.555 10.422c-0.565 0-1.024 0.458-1.024 1.024s0.459 1.024 1.024 1.024c0.565 0 1.024-0.459 1.024-1.024s-0.459-1.024-1.024-1.024zM16 11.618c-2.42 0-4.382 1.962-4.382 4.382s1.962 4.381 4.382 4.381c2.42 0 4.381-1.961 4.381-4.381s-1.961-4.382-4.381-4.382z"></path>
<path fill="#faf4ea" style="fill: var(--color2, #faf4ea)" d="M16.001 13.155c1.571 0 2.845 1.273 2.845 2.844s-1.274 2.845-2.845 2.845c-1.571 0-2.845-1.274-2.845-2.845s1.273-2.844 2.845-2.844z"></path>
</symbol>
<symbol id="icon-Arrow-right-black" viewBox="0 0 32 32">
<path fill="#31261a" style="fill: var(--color3, #31261a)" d="M0 16c0 8.837 7.163 16 16 16s16-7.163 16-16c0-8.837-7.163-16-16-16s-16 7.163-16 16z"></path>
<path fill="none" stroke="#faf4ea" style="stroke: var(--color2, #faf4ea)" stroke-linejoin="miter" stroke-linecap="butt" stroke-miterlimit="4" stroke-width="0.5587" d="M0.279 16c0 8.682 7.038 15.721 15.721 15.721s15.721-7.038 15.721-15.721c0-8.682-7.038-15.721-15.721-15.721s-15.721 7.038-15.721 15.721z"></path>
<path fill="#faf4ea" style="fill: var(--color2, #faf4ea)" d="M23.060 15.486c0.284 0.284 0.284 0.744 0 1.029l-4.628 4.628c-0.284 0.284-0.744 0.284-1.029 0s-0.284-0.744 0-1.029l4.114-4.114-4.114-4.114c-0.284-0.284-0.284-0.744 0-1.028s0.744-0.284 1.029 0l4.628 4.628zM22.545 16.727h-12.19v-1.455h12.19v1.455z"></path>
</symbol>
<symbol id="icon-Arrow-black-left" viewBox="0 0 32 32">
<path fill="#31261a" style="fill: var(--color3, #31261a)" d="M0 16c0 8.837 7.163 16 16 16s16-7.163 16-16c0-8.837-7.163-16-16-16s-16 7.163-16 16z"></path>
<path fill="none" stroke="#faf4ea" style="stroke: var(--color2, #faf4ea)" stroke-linejoin="miter" stroke-linecap="butt" stroke-miterlimit="4" stroke-width="0.5587" d="M0.279 16c0 8.682 7.038 15.721 15.721 15.721s15.721-7.038 15.721-15.721c0-8.682-7.038-15.721-15.721-15.721s-15.721 7.038-15.721 15.721z"></path>
<path fill="#faf4ea" style="fill: var(--color2, #faf4ea)" d="M9.841 16.514c-0.284-0.284-0.284-0.745 0-1.028l4.628-4.628c0.284-0.284 0.745-0.284 1.029 0s0.284 0.745 0 1.028l-4.114 4.114 4.114 4.114c0.284 0.284 0.284 0.744 0 1.029s-0.745 0.284-1.029 0l-4.628-4.628zM22.545 16.727h-12.19v-1.455h12.19v1.455z"></path>
</symbol>
<symbol id="icon-Arrow-right" viewBox="0 0 32 32">
<path fill="#faf4ea" style="fill: var(--color2, #faf4ea)" opacity="0.7" d="M0 16c0 8.837 7.163 16 16 16s16-7.163 16-16c0-8.837-7.163-16-16-16s-16 7.163-16 16z"></path>
<path fill="none" stroke="#31261a" style="stroke: var(--color3, #31261a)" stroke-linejoin="miter" stroke-linecap="butt" stroke-miterlimit="4" stroke-width="0.5587" d="M0.279 16c0 8.682 7.038 15.721 15.721 15.721s15.721-7.038 15.721-15.721c0-8.682-7.038-15.721-15.721-15.721s-15.721 7.038-15.721 15.721z"></path>
<path fill="#31261a" style="fill: var(--color3, #31261a)" d="M23.060 15.486c0.284 0.284 0.284 0.744 0 1.029l-4.628 4.628c-0.284 0.284-0.744 0.284-1.029 0s-0.284-0.744 0-1.029l4.114-4.114-4.114-4.114c-0.284-0.284-0.284-0.744 0-1.028s0.744-0.284 1.029 0l4.628 4.628zM22.545 16.727h-12.19v-1.455h12.19v1.455z"></path>
</symbol>
<symbol id="icon-Arrow-left" viewBox="0 0 32 32">
<path fill="#faf4ea" style="fill: var(--color2, #faf4ea)" opacity="0.7" d="M0 16c0 8.837 7.163 16 16 16s16-7.163 16-16c0-8.837-7.163-16-16-16s-16 7.163-16 16z"></path>
<path fill="none" stroke="#31261a" style="stroke: var(--color3, #31261a)" stroke-linejoin="miter" stroke-linecap="butt" stroke-miterlimit="4" stroke-width="0.5587" d="M0.279 16c0 8.682 7.038 15.721 15.721 15.721s15.721-7.038 15.721-15.721c0-8.682-7.038-15.721-15.721-15.721s-15.721 7.038-15.721 15.721z"></path>
<path fill="#31261a" style="fill: var(--color3, #31261a)" d="M9.841 16.514c-0.284-0.284-0.284-0.745 0-1.028l4.628-4.628c0.284-0.284 0.745-0.284 1.029 0s0.284 0.745 0 1.028l-4.114 4.114 4.114 4.114c0.284 0.284 0.284 0.744 0 1.029s-0.745 0.284-1.029 0l-4.628-4.628zM22.545 16.727h-12.19v-1.455h12.19v1.455z"></path>
</symbol>
<symbol id="icon-icon-close" viewBox="0 0 32 32">
<path stroke-linejoin="miter" stroke-linecap="round" stroke-miterlimit="4" stroke-width="2" d="M8 8l8 8 8-8"></path>
<path stroke-linejoin="miter" stroke-linecap="round" stroke-miterlimit="4" stroke-width="2" d="M8 24l8-8 8 8"></path>
</symbol>
<symbol id="icon-menu" viewBox="0 0 32 32">
<path fill="#faf4ea" style="fill: var(--color1, #faf4ea)" d="M29.333 24.007c0 0.733-0.595 1.327-1.327 1.327h-10.68c-0.352 0-0.689-0.14-0.938-0.389s-0.389-0.586-0.389-0.938c0-0.352 0.14-0.689 0.389-0.938s0.586-0.389 0.938-0.389h10.68c0.733 0 1.327 0.593 1.327 1.327zM29.333 16c0 0.733-0.595 1.327-1.327 1.327h-24.013c-0.352 0-0.689-0.14-0.938-0.389s-0.389-0.586-0.389-0.938c0-0.352 0.14-0.689 0.389-0.938s0.586-0.389 0.938-0.389h24.013c0.733 0 1.327 0.595 1.327 1.327zM28.007 9.32c0.352 0 0.689-0.14 0.938-0.389s0.389-0.586 0.389-0.938c0-0.352-0.14-0.689-0.389-0.938s-0.586-0.389-0.938-0.389h-16.013c-0.174 0-0.347 0.034-0.508 0.101s-0.307 0.164-0.43 0.288c-0.123 0.123-0.221 0.269-0.288 0.43s-0.101 0.333-0.101 0.508c0 0.174 0.034 0.347 0.101 0.508s0.164 0.307 0.288 0.43c0.123 0.123 0.269 0.221 0.43 0.288s0.333 0.101 0.508 0.101h16.013z"></path>
</symbol>
</defs>
</svg>
